<svg xmlns="http://www.w3.org/2000/svg" xmlns:xlink="http://www.w3.org/1999/xlink" height="20" viewBox="0 0 459.015 71.536">
    <defs>
        <linearGradient id="linear-gradient" y1="0.5" x2="1" y2="0.5" gradientUnits="objectBoundingBox">
        <stop offset="0" stop-color="#ffde3e"/>
        <stop offset="0.25" stop-color="#ff793e"/>
        <stop offset="0.5" stop-color="#ff31fa"/>
        <stop offset="0.75" stop-color="#8733ff"/>
        <stop offset="1" stop-color="#221dff"/>
        </linearGradient>
        <linearGradient id="linear-gradient-2" x1="0.924" y1="1.045" x2="0.116" y2="0.006" gradientUnits="objectBoundingBox">
        <stop offset="0" stop-color="#1d254f"/>
        <stop offset="0.05" stop-color="#282557"/>
        <stop offset="0.14" stop-color="#47276f"/>
        <stop offset="0.25" stop-color="#792995"/>
        <stop offset="0.38" stop-color="#be2dc8"/>
        <stop offset="0.5" stop-color="#ff31fa"/>
        <stop offset="1" stop-color="#ffde3e"/>
        </linearGradient>
    </defs>
    <g id="Group_226" data-name="Group 226" transform="translate(-390.852 -89.8)">
        <path id="Path_1095" data-name="Path 1095" d="M19.951-50.836H30.885L49.984,0H39.4L35.216-12.141H15.62L11.431,0H.852ZM32.092-20.945,27.548-33.654,25.7-39.831h-.568l-1.846,6.177L18.744-20.945ZM54.883-34.79h8.733V-30.6h.568a10.555,10.555,0,0,1,3.976-3.763,13.137,13.137,0,0,1,6.674-1.562,15.063,15.063,0,0,1,6.355,1.385,16.989,16.989,0,0,1,5.325,3.834A18.208,18.208,0,0,1,90.17-24.85,20.08,20.08,0,0,1,91.519-17.4,20.08,20.08,0,0,1,90.17-9.94a18.208,18.208,0,0,1-3.656,5.857A16.989,16.989,0,0,1,81.189-.249a15.063,15.063,0,0,1-6.355,1.385A13.137,13.137,0,0,1,68.16-.426a10.555,10.555,0,0,1-3.976-3.763h-.568l.568,4.97V15.336h-9.3ZM72.917-7.455a8.883,8.883,0,0,0,3.514-.71,9.251,9.251,0,0,0,2.947-1.988,9.7,9.7,0,0,0,2.059-3.124,10.469,10.469,0,0,0,.781-4.118,10.469,10.469,0,0,0-.781-4.118,9.7,9.7,0,0,0-2.059-3.124,9.251,9.251,0,0,0-2.947-1.988,8.884,8.884,0,0,0-3.514-.71,9.289,9.289,0,0,0-3.515.674,8.781,8.781,0,0,0-2.947,1.952A9.7,9.7,0,0,0,64.4-21.584a10.661,10.661,0,0,0-.781,4.189,10.661,10.661,0,0,0,.781,4.189,9.7,9.7,0,0,0,2.059,3.124A8.781,8.781,0,0,0,69.4-8.13,9.289,9.289,0,0,0,72.917-7.455ZM96.489-34.79h8.733V-30.6h.568a10.555,10.555,0,0,1,3.976-3.763,13.137,13.137,0,0,1,6.674-1.562,15.063,15.063,0,0,1,6.355,1.385,16.989,16.989,0,0,1,5.325,3.834,18.208,18.208,0,0,1,3.656,5.858,20.08,20.08,0,0,1,1.349,7.455,20.08,20.08,0,0,1-1.349,7.455,18.208,18.208,0,0,1-3.656,5.857,16.989,16.989,0,0,1-5.325,3.834,15.063,15.063,0,0,1-6.355,1.385,13.137,13.137,0,0,1-6.674-1.562,10.555,10.555,0,0,1-3.976-3.763h-.568l.568,4.97V15.336h-9.3ZM114.523-7.455a8.883,8.883,0,0,0,3.514-.71,9.251,9.251,0,0,0,2.947-1.988,9.7,9.7,0,0,0,2.059-3.124,10.469,10.469,0,0,0,.781-4.118,10.469,10.469,0,0,0-.781-4.118,9.7,9.7,0,0,0-2.059-3.124,9.251,9.251,0,0,0-2.947-1.988,8.884,8.884,0,0,0-3.514-.71,9.289,9.289,0,0,0-3.515.674,8.781,8.781,0,0,0-2.947,1.952A9.7,9.7,0,0,0,106-21.584a10.661,10.661,0,0,0-.781,4.189A10.661,10.661,0,0,0,106-13.206a9.7,9.7,0,0,0,2.059,3.124,8.781,8.781,0,0,0,2.947,1.953A9.289,9.289,0,0,0,114.523-7.455Zm25.7-43.381h32.234v9.088H149.81v12.354h20.377v9.088H149.81V0h-9.585Zm69.3,42.458a19.492,19.492,0,0,1-6.5,6.887,18.055,18.055,0,0,1-9.976,2.627A19.164,19.164,0,0,1,185.7-.249a17.683,17.683,0,0,1-5.857-3.87,17.683,17.683,0,0,1-3.87-5.858,19.356,19.356,0,0,1-1.384-7.419,19.033,19.033,0,0,1,1.349-7.136,18.192,18.192,0,0,1,3.763-5.893,18.193,18.193,0,0,1,5.715-4.011,17.478,17.478,0,0,1,7.277-1.491,18.949,18.949,0,0,1,7.455,1.385,15.208,15.208,0,0,1,5.467,3.834,16.5,16.5,0,0,1,3.337,5.787,22.337,22.337,0,0,1,1.136,7.242v.852a4.779,4.779,0,0,0-.071.781,3.991,3.991,0,0,0-.071.781h-26.2a9.784,9.784,0,0,0,1.171,3.656,8.87,8.87,0,0,0,2.2,2.556A8.557,8.557,0,0,0,190-7.562a11.218,11.218,0,0,0,3.195.462,9.057,9.057,0,0,0,5.29-1.456,10.621,10.621,0,0,0,3.3-3.657Zm-8.449-13.49a6.023,6.023,0,0,0-.6-2.059,7.249,7.249,0,0,0-1.562-2.13,8.176,8.176,0,0,0-2.556-1.633,9.446,9.446,0,0,0-3.656-.639,8.519,8.519,0,0,0-5.254,1.7,9,9,0,0,0-3.2,4.757Zm48.28,13.49a19.492,19.492,0,0,1-6.5,6.887,18.055,18.055,0,0,1-9.976,2.627,19.164,19.164,0,0,1-7.348-1.385,17.683,17.683,0,0,1-5.857-3.87,17.683,17.683,0,0,1-3.87-5.858A19.356,19.356,0,0,1,214.42-17.4a19.033,19.033,0,0,1,1.349-7.136,18.192,18.192,0,0,1,3.763-5.893,18.193,18.193,0,0,1,5.715-4.011,17.478,17.478,0,0,1,7.277-1.491,18.949,18.949,0,0,1,7.455,1.385,15.208,15.208,0,0,1,5.467,3.834,16.5,16.5,0,0,1,3.337,5.787,22.337,22.337,0,0,1,1.136,7.242v.852a4.779,4.779,0,0,0-.071.781,3.991,3.991,0,0,0-.071.781h-26.2a9.784,9.784,0,0,0,1.171,3.656,8.87,8.87,0,0,0,2.2,2.556,8.557,8.557,0,0,0,2.876,1.491,11.218,11.218,0,0,0,3.195.462,9.057,9.057,0,0,0,5.29-1.456,10.621,10.621,0,0,0,3.3-3.657ZM240.9-21.868a6.023,6.023,0,0,0-.6-2.059,7.249,7.249,0,0,0-1.562-2.13,8.176,8.176,0,0,0-2.556-1.633,9.446,9.446,0,0,0-3.656-.639,8.519,8.519,0,0,0-5.254,1.7,9,9,0,0,0-3.2,4.757ZM371.046-3.692h-.568a15.69,15.69,0,0,1-3.94,3.408,11.162,11.162,0,0,1-5.929,1.42,14.4,14.4,0,0,1-5.076-.888,13.205,13.205,0,0,1-4.154-2.45,10.956,10.956,0,0,1-2.769-3.763,11.594,11.594,0,0,1-.994-4.828,10.873,10.873,0,0,1,1.065-4.863,11.061,11.061,0,0,1,2.982-3.727,13.451,13.451,0,0,1,4.508-2.379,18.7,18.7,0,0,1,5.645-.816,24.464,24.464,0,0,1,5.609.532,27.206,27.206,0,0,1,3.621,1.1V-22.01a5.68,5.68,0,0,0-2.2-4.58,8.321,8.321,0,0,0-5.467-1.81,10.214,10.214,0,0,0-8.165,4.047l-6.745-4.615q5.538-6.958,15.123-6.958,8.094,0,12.354,3.8t4.26,11.254V0h-9.159Zm0-10.437a19.229,19.229,0,0,0-3.372-1.243,14.785,14.785,0,0,0-3.8-.461,8.031,8.031,0,0,0-5.148,1.455,4.438,4.438,0,0,0-1.81,3.586,4.022,4.022,0,0,0,1.74,3.408,6.6,6.6,0,0,0,4.012,1.278,8.5,8.5,0,0,0,3.408-.674,8.459,8.459,0,0,0,2.663-1.775,7.806,7.806,0,0,0,1.7-2.556A7.805,7.805,0,0,0,371.046-14.129Zm49.2,5.254a19.418,19.418,0,0,1-6.354,7.206,17.58,17.58,0,0,1-10.189,2.8,19.356,19.356,0,0,1-7.419-1.385,17.294,17.294,0,0,1-5.822-3.87,17.964,17.964,0,0,1-3.834-5.858,19.356,19.356,0,0,1-1.384-7.419,19.624,19.624,0,0,1,1.384-7.455,17.478,17.478,0,0,1,3.834-5.858,17.563,17.563,0,0,1,5.822-3.834,19.356,19.356,0,0,1,7.419-1.385,17.786,17.786,0,0,1,10.153,2.769,16.4,16.4,0,0,1,6.035,7.171l-8.52,3.55a9.149,9.149,0,0,0-3.089-3.656,8.4,8.4,0,0,0-4.721-1.243,8.63,8.63,0,0,0-3.479.71,8.951,8.951,0,0,0-2.875,1.988,9.1,9.1,0,0,0-1.953,3.124,11.391,11.391,0,0,0-.71,4.118,11.391,11.391,0,0,0,.71,4.118,9.1,9.1,0,0,0,1.953,3.124,8.951,8.951,0,0,0,2.875,1.988,8.63,8.63,0,0,0,3.479.71A8.871,8.871,0,0,0,408.5-8.769a9.164,9.164,0,0,0,3.23-3.8Zm5.68-41.961h9.3v27.69h.426L447.3-34.79h11.5v.568L445.88-21.655,459.867-.568V0H448.862l-9.514-15.265-4.118,4.047V0h-9.3Z" transform="translate(390 146)"/>
        <g id="Group_225" data-name="Group 225" transform="translate(0 -240)">
        <path id="Subtraction_17" data-name="Subtraction 17" d="M0,27.4H0V0H11V18.148C7.712,19.718,4.469,22.18.483,26.131Z" transform="translate(692 329.8)" fill="#d532fc"/>
        <path id="Subtraction_18" data-name="Subtraction 18" d="M11,24.276v0a27.02,27.02,0,0,0-11-6.6V0H11V24.276Z" transform="translate(672 329.8)" fill="#ffa083"/>
        <path id="Path_905" data-name="Path 905" d="M258.265,179.943c-10.747,0-17.715-6.964-24.454-13.7l-5.377-5.377h0c-6.167-6.11-10.523-9.806-16.711-9.806a10.8,10.8,0,0,0-7.585,2.925,9.6,9.6,0,0,0,0,13.758,10.8,10.8,0,0,0,7.585,2.925,14.529,14.529,0,0,0,7.594-2.139,22.776,22.776,0,0,0,4.976-5.748l6.053,3.656a3.795,3.795,0,0,1-.179,5.539c-8.024,7.023-13.827,7.97-18.442,7.97-11.083,0-19.766-8.382-19.766-19.081s8.683-19.081,19.766-19.081,17.715,6.964,24.454,13.7l5.5,5.5c6.1,6.038,10.441,9.682,16.587,9.682a10.8,10.8,0,0,0,7.585-2.925,9.6,9.6,0,0,0,0-13.758,10.8,10.8,0,0,0-7.585-2.925c-4.065,0-7.5,1.526-11.871,5.266a4.393,4.393,0,0,1-2.852,1.053,4.342,4.342,0,0,1-3.092-1.279l-2.889-3.443.545-1.353c6.143-5.715,11.925-9.522,20.158-9.522,11.083,0,19.766,8.382,19.766,19.081s-8.683,19.081-19.766,19.081Z" transform="translate(454.373 208.22)" fill="url(#linear-gradient)"/>
        <path id="Path_906" data-name="Path 906" d="M298.274,176.94c-5.666,3.071-11.786-.383-16.648-5.245l-10.714-10.714-5.5-5.5c-6.738-6.736-13.7-13.7-24.454-13.7a20.434,20.434,0,0,0-10.777,3c7.528-4.366,13.8,2.393,18.179,6.771l9.308,9.308a.007.007,0,0,0,0,0l5.375,5.375c6.738,6.736,13.7,13.7,24.454,13.7a20.4,20.4,0,0,0,10.775-3Z" transform="translate(425.523 208.22)" fill="url(#linear-gradient-2)"/>
        </g>
    </g>
</svg>